<svg width="218.007470703125px" height="121.40498046875px" xmlns="http://www.w3.org/2000/svg" viewBox="140.9962646484375 14.297509765625001 218.007470703125 121.40498046875" style="background: rgb(62, 109, 141);" preserveAspectRatio="xMidYMid"><defs><filter id="editing-lego" x="-100%" y="-100%" width="300%" height="300%"><feFlood flood-color="#eef3ef" result="f1"></feFlood><feFlood flood-color="#f9aa47" result="f2"></feFlood><feMorphology operator="dilate" radius="3" in="SourceAlpha"></feMorphology><feConvolveMatrix order="5,5" divisor="1" result="cm1" kernelMatrix="0 1 1 1 0  1 0 0 0 1  1 0 0 0 1  1 0 0 0 1  0 1 1 1 0"></feConvolveMatrix><feComposite operator="in" in="f1" in2="cm1" result="c1"></feComposite><feMorphology operator="dilate" radius="3"></feMorphology><feConvolveMatrix order="5,5" divisor="1" result="cm2" kernelMatrix="0 1 1 1 0  1 0 0 0 1  1 0 0 0 1  1 0 0 0 1  0 1 1 1 0"></feConvolveMatrix><feComposite operator="in" in="f2" in2="cm2" result="c2"></feComposite><feMerge><feMergeNode in="c2"></feMergeNode><feMergeNode in="c1"></feMergeNode><feMergeNode in="SourceGraphic"></feMergeNode></feMerge></filter></defs><g filter="url(#editing-lego)"><g transform="translate(178.19000178575516, 97.36999893188477)"><path d="M7.68 0L0.64 0L8.32-42.24L22.08-42.24L32.06-13.18L37.38-42.24L44.48-42.18L36.67 0L22.02 0L12.80-27.97L7.68 0ZM47.68-39.68L47.68-39.68L47.68-39.68Q48.58-41.47 50.53-42.46L50.53-42.46L50.53-42.46Q52.48-43.46 55.17-43.46L55.17-43.46L55.17-43.46Q59.39-43.46 61.92-40.42L61.92-40.42L61.92-40.42Q64.45-37.38 64.45-30.72L64.45-30.72L64.45-7.87L79.10-42.18L86.66-42.18L88.38-9.79L88.19-7.94L103.42-42.18L112.19-42.18L91.71 0L78.08 0L76.80-19.46L68.35 0L52.93 0L51.01-30.72L51.01-30.72Q50.82-34.18 49.89-36.45L49.89-36.45L49.89-36.45Q48.96-38.72 47.68-39.68ZM135.94 1.28L135.94 1.28L135.94 1.28Q127.74 1.28 126.98-10.37L126.98-10.37L115.97-10.37L115.97-10.37Q114.69-7.42 113.79-4.86L113.79-4.86L112.13 0L103.17 0L123.33-42.24L137.09-42.24L139.78-11.14L139.78-11.14Q140.42-4.42 142.98-2.43L142.98-2.43L142.98-2.43Q141.12 1.28 135.94 1.28ZM121.47-23.17L117.95-15.04L126.78-15.04L126.02-31.49L126.02-33.22L121.47-23.17Z" fill="#4b9bbe"></path></g></g><style>text {
  font-size: 64px;
  font-family: Arial Black;
  dominant-baseline: central;
  text-anchor: middle;
}</style></svg>
